<svg width="80" height="48" viewBox="0 0 80 48" fill="none" xmlns="http://www.w3.org/2000/svg">
<path d="M18.8766 12.5191H33.9654V13.7118H20.2598V22.6887H33.1481V23.8814H20.2598V33.7372H34.1225V34.9299H18.8766V12.5191ZM35.3171 12.5191H36.9202L44.0245 22.3748L51.286 12.5191L61.1627 0L44.9361 23.4106L53.2978 34.9299H51.6318L44.0245 24.4464L36.3858 34.9299H34.7512L43.1758 23.4106L35.3171 12.5191ZM53.8951 13.7118V12.5191H71.0899V13.7118H63.1684V34.9299H61.7852V13.7118H53.8951ZM0 12.5191H1.72892L25.5697 48L15.7174 34.9299L1.446 14.214L1.38313 34.9299H0L0 12.5191ZM70.9506 33.3773C70.668 33.3773 70.4561 33.1595 70.4561 32.8781C70.4561 32.5967 70.668 32.3789 70.9506 32.3789C71.2365 32.3789 71.4451 32.5967 71.4451 32.8781C71.4451 33.1595 71.2365 33.3773 70.9506 33.3773ZM72.3097 32.064H73.0498C73.0599 32.4627 73.3525 32.7307 73.7831 32.7307C74.2642 32.7307 74.5367 32.4426 74.5367 31.9032V28.4861H75.2903V31.9066C75.2903 32.8781 74.7251 33.4376 73.7899 33.4376C72.9118 33.4376 72.3097 32.8948 72.3097 32.064ZM76.2759 32.0205H77.0228C77.0867 32.4794 77.5375 32.7709 78.1868 32.7709C78.7923 32.7709 79.2364 32.4593 79.2364 32.0305C79.2364 31.662 78.9538 31.4409 78.3112 31.2901L77.6855 31.1394C76.8075 30.935 76.4072 30.5129 76.4072 29.8027C76.4072 28.9417 77.1136 28.3688 78.1733 28.3688C79.159 28.3688 79.8789 28.9417 79.9226 29.7558H79.1893C79.1186 29.3102 78.7284 29.0322 78.1632 29.0322C77.5678 29.0322 77.1708 29.3169 77.1708 29.7524C77.1708 30.0975 77.4265 30.2952 78.0589 30.4426L78.5938 30.5732C79.5896 30.8044 80 31.2064 80 31.9334C80 32.858 79.2801 33.4376 78.1296 33.4376C77.0531 33.4376 76.3298 32.8848 76.2759 32.0205Z" fill="white"/>
</svg>
